<svg width="174" height="104" viewBox="0 0 174 104" fill="none" xmlns="http://www.w3.org/2000/svg">
<g clip-path="url(#clip0_6_15)">
<path d="M39.3114 104.004C22.4573 104.004 8.79596 90.2855 8.79596 73.3643L8.79596 30.7004C8.79596 13.7793 22.4573 0.0611572 39.3114 0.0611572L82 0.0611572V21.406C82 29.8638 78.5862 37.5199 73.0667 43.0627C67.5463 48.6049 59.9212 52.0326 51.4976 52.0326C59.9212 52.0326 67.5463 55.4605 73.0667 61.0023C78.5862 66.5455 82 74.2012 82 82.659V104.004H39.3114Z" fill="#000"/>
</g>
<g clip-path="url(#clip1_6_15)">
<path d="M134.689 -0.00382233C151.543 -0.00382233 165.204 13.7145 165.204 30.6357V73.2995C165.204 90.2207 151.543 103.939 134.689 103.939H92.0001V82.594C92.0001 74.1362 95.4139 66.48 100.933 60.9373C106.454 55.3951 114.079 51.9674 122.502 51.9674C114.079 51.9674 106.454 48.5395 100.933 42.9977C95.4139 37.4545 92.0001 29.7988 92.0001 21.341V-0.00382233H134.689Z" fill="#000"/>
</g>
<defs>
<clipPath id="clip0_6_15">
<rect width="82" height="104" fill="white"/>
</clipPath>
<clipPath id="clip1_6_15">
<rect width="82" height="104" fill="white" transform="matrix(-1 0 0 -1 174 104)"/>
</clipPath>
</defs>
</svg>
